<svg xmlns="http://www.w3.org/2000/svg" width="1024" height="1024" viewBox="0 0 1024 1024">
  <defs>
    <linearGradient id="bgGradient" x1="0%" y1="0%" x2="100%" y2="100%">
      <stop offset="0%" stop-color="#161617"/>
      <stop offset="52%" stop-color="#101113"/>
      <stop offset="100%" stop-color="#18191b"/>
    </linearGradient>
    <radialGradient id="innerLeft" cx="35%" cy="35%" r="80%">
      <stop offset="0%" stop-color="#8f695c"/>
      <stop offset="100%" stop-color="#6f4d44"/>
    </radialGradient>
    <radialGradient id="innerRight" cx="70%" cy="32%" r="85%">
      <stop offset="0%" stop-color="#d47b74"/>
      <stop offset="100%" stop-color="#c66f69"/>
    </radialGradient>
    <linearGradient id="ringGloss" x1="18%" y1="15%" x2="82%" y2="84%">
      <stop offset="0%" stop-color="#5a5b5e"/>
      <stop offset="50%" stop-color="#191b1f"/>
      <stop offset="100%" stop-color="#050608"/>
    </linearGradient>
    <linearGradient id="highlight" x1="0%" y1="0%" x2="100%" y2="100%">
      <stop offset="0%" stop-color="#ffffff" stop-opacity="0.44"/>
      <stop offset="100%" stop-color="#ffffff" stop-opacity="0"/>
    </linearGradient>
    <filter id="softShadow" x="-20%" y="-20%" width="140%" height="140%">
      <feDropShadow dx="0" dy="24" stdDeviation="28" flood-color="#000000" flood-opacity="0.24"/>
    </filter>
    <clipPath id="iconClip">
      <rect x="24" y="24" width="976" height="976" rx="144" ry="144"/>
    </clipPath>
    <clipPath id="dialClip">
      <circle cx="512" cy="488" r="258"/>
    </clipPath>
  </defs>

  <g clip-path="url(#iconClip)">
    <rect x="24" y="24" width="976" height="976" rx="144" ry="144" fill="url(#bgGradient)"/>
    <rect x="24" y="24" width="976" height="976" rx="144" ry="144" fill="none" stroke="#d78c96" stroke-width="18"/>

    <g filter="url(#softShadow)">
      <circle cx="512" cy="488" r="312" fill="none" stroke="#d78c96" stroke-width="10"/>
      <circle cx="512" cy="488" r="294" fill="url(#ringGloss)"/>
      <circle cx="512" cy="488" r="286" fill="none" stroke="#0b0b0d" stroke-width="12"/>
      <circle cx="512" cy="488" r="258" fill="#131417"/>

      <g clip-path="url(#dialClip)">
        <rect x="254" y="230" width="258" height="516" fill="url(#innerLeft)"/>
        <rect x="512" y="230" width="258" height="516" fill="url(#innerRight)"/>
      </g>

      <circle cx="512" cy="488" r="258" fill="none" stroke="#ffffff" stroke-opacity="0.10" stroke-width="4"/>
    </g>

    <g stroke="#f6f3f2" stroke-linecap="round" transform="translate(512 488)">
      <line x1="0" y1="-242" x2="0" y2="-204" stroke-width="12" transform="rotate(0)"/>
      <line x1="0" y1="-242" x2="0" y2="-204" stroke-width="12" transform="rotate(90)"/>
      <line x1="0" y1="-242" x2="0" y2="-204" stroke-width="12" transform="rotate(180)"/>
      <line x1="0" y1="-242" x2="0" y2="-204" stroke-width="12" transform="rotate(270)"/>

      <line x1="0" y1="-238" x2="0" y2="-196" stroke-width="11" transform="rotate(30)"/>
      <line x1="0" y1="-238" x2="0" y2="-196" stroke-width="11" transform="rotate(60)"/>
      <line x1="0" y1="-238" x2="0" y2="-196" stroke-width="11" transform="rotate(120)"/>
      <line x1="0" y1="-238" x2="0" y2="-196" stroke-width="11" transform="rotate(150)"/>
      <line x1="0" y1="-238" x2="0" y2="-196" stroke-width="11" transform="rotate(210)"/>
      <line x1="0" y1="-238" x2="0" y2="-196" stroke-width="11" transform="rotate(240)"/>
      <line x1="0" y1="-238" x2="0" y2="-196" stroke-width="11" transform="rotate(300)"/>
      <line x1="0" y1="-238" x2="0" y2="-196" stroke-width="11" transform="rotate(330)"/>

      <line x1="0" y1="-236" x2="0" y2="-208" stroke-width="8" transform="rotate(6)"/>
      <line x1="0" y1="-236" x2="0" y2="-208" stroke-width="8" transform="rotate(12)"/>
      <line x1="0" y1="-236" x2="0" y2="-208" stroke-width="8" transform="rotate(18)"/>
      <line x1="0" y1="-236" x2="0" y2="-208" stroke-width="8" transform="rotate(24)"/>
      <line x1="0" y1="-236" x2="0" y2="-208" stroke-width="8" transform="rotate(36)"/>
      <line x1="0" y1="-236" x2="0" y2="-208" stroke-width="8" transform="rotate(42)"/>
      <line x1="0" y1="-236" x2="0" y2="-208" stroke-width="8" transform="rotate(48)"/>
      <line x1="0" y1="-236" x2="0" y2="-208" stroke-width="8" transform="rotate(54)"/>
      <line x1="0" y1="-236" x2="0" y2="-208" stroke-width="8" transform="rotate(66)"/>
      <line x1="0" y1="-236" x2="0" y2="-208" stroke-width="8" transform="rotate(72)"/>
      <line x1="0" y1="-236" x2="0" y2="-208" stroke-width="8" transform="rotate(78)"/>
      <line x1="0" y1="-236" x2="0" y2="-208" stroke-width="8" transform="rotate(84)"/>
      <line x1="0" y1="-236" x2="0" y2="-208" stroke-width="8" transform="rotate(96)"/>
      <line x1="0" y1="-236" x2="0" y2="-208" stroke-width="8" transform="rotate(102)"/>
      <line x1="0" y1="-236" x2="0" y2="-208" stroke-width="8" transform="rotate(108)"/>
      <line x1="0" y1="-236" x2="0" y2="-208" stroke-width="8" transform="rotate(114)"/>
      <line x1="0" y1="-236" x2="0" y2="-208" stroke-width="8" transform="rotate(126)"/>
      <line x1="0" y1="-236" x2="0" y2="-208" stroke-width="8" transform="rotate(132)"/>
      <line x1="0" y1="-236" x2="0" y2="-208" stroke-width="8" transform="rotate(138)"/>
      <line x1="0" y1="-236" x2="0" y2="-208" stroke-width="8" transform="rotate(144)"/>
      <line x1="0" y1="-236" x2="0" y2="-208" stroke-width="8" transform="rotate(156)"/>
      <line x1="0" y1="-236" x2="0" y2="-208" stroke-width="8" transform="rotate(162)"/>
      <line x1="0" y1="-236" x2="0" y2="-208" stroke-width="8" transform="rotate(168)"/>
      <line x1="0" y1="-236" x2="0" y2="-208" stroke-width="8" transform="rotate(174)"/>
      <line x1="0" y1="-236" x2="0" y2="-208" stroke-width="8" transform="rotate(186)"/>
      <line x1="0" y1="-236" x2="0" y2="-208" stroke-width="8" transform="rotate(192)"/>
      <line x1="0" y1="-236" x2="0" y2="-208" stroke-width="8" transform="rotate(198)"/>
      <line x1="0" y1="-236" x2="0" y2="-208" stroke-width="8" transform="rotate(204)"/>
      <line x1="0" y1="-236" x2="0" y2="-208" stroke-width="8" transform="rotate(216)"/>
      <line x1="0" y1="-236" x2="0" y2="-208" stroke-width="8" transform="rotate(222)"/>
      <line x1="0" y1="-236" x2="0" y2="-208" stroke-width="8" transform="rotate(228)"/>
      <line x1="0" y1="-236" x2="0" y2="-208" stroke-width="8" transform="rotate(234)"/>
      <line x1="0" y1="-236" x2="0" y2="-208" stroke-width="8" transform="rotate(246)"/>
      <line x1="0" y1="-236" x2="0" y2="-208" stroke-width="8" transform="rotate(252)"/>
      <line x1="0" y1="-236" x2="0" y2="-208" stroke-width="8" transform="rotate(258)"/>
      <line x1="0" y1="-236" x2="0" y2="-208" stroke-width="8" transform="rotate(264)"/>
      <line x1="0" y1="-236" x2="0" y2="-208" stroke-width="8" transform="rotate(276)"/>
      <line x1="0" y1="-236" x2="0" y2="-208" stroke-width="8" transform="rotate(282)"/>
      <line x1="0" y1="-236" x2="0" y2="-208" stroke-width="8" transform="rotate(288)"/>
      <line x1="0" y1="-236" x2="0" y2="-208" stroke-width="8" transform="rotate(294)"/>
      <line x1="0" y1="-236" x2="0" y2="-208" stroke-width="8" transform="rotate(306)"/>
      <line x1="0" y1="-236" x2="0" y2="-208" stroke-width="8" transform="rotate(312)"/>
      <line x1="0" y1="-236" x2="0" y2="-208" stroke-width="8" transform="rotate(318)"/>
      <line x1="0" y1="-236" x2="0" y2="-208" stroke-width="8" transform="rotate(324)"/>
      <line x1="0" y1="-236" x2="0" y2="-208" stroke-width="8" transform="rotate(336)"/>
      <line x1="0" y1="-236" x2="0" y2="-208" stroke-width="8" transform="rotate(342)"/>
      <line x1="0" y1="-236" x2="0" y2="-208" stroke-width="8" transform="rotate(348)"/>
      <line x1="0" y1="-236" x2="0" y2="-208" stroke-width="8" transform="rotate(354)"/>
    </g>

    <g transform="translate(512 488) rotate(151)">
      <line x1="0" y1="0" x2="0" y2="190" stroke="#ff140e" stroke-width="34" stroke-linecap="round"/>
    </g>
    <circle cx="512" cy="488" r="20" fill="#fbfbfb" stroke="#ff120c" stroke-width="10"/>

    <path d="M185 255 C 284 145, 453 110, 595 133 C 512 176, 420 248, 329 362 C 242 343, 176 313, 185 255 Z"
          fill="url(#highlight)"/>
    <circle cx="512" cy="488" r="312" fill="none" stroke="#000000" stroke-opacity="0.28" stroke-width="3"/>
  </g>
</svg>
